<svg width="80" height="80" viewBox="0 0 80 80" fill="none" xmlns="http://www.w3.org/2000/svg">
<g clip-path="url(#clip0_206_2)">
<path d="M40 80C62.0914 80 80 62.0914 80 40C80 17.9086 62.0914 0 40 0C17.9086 0 0 17.9086 0 40C0 62.0914 17.9086 80 40 80Z" fill="#FBFF3A"/>
<path d="M12.1572 11.2812L68.6675 67.8956C61.4009 75.3625 51.2419 80 40 80C17.9088 80 0 62.0913 0 40C0 28.7313 4.65938 18.5512 12.1572 11.2812Z" fill="white" fill-opacity="0.1"/>
<path d="M38.0376 54.4375C35.3164 55.7615 32.3117 56.3968 29.2876 56.2875C27.289 56.3751 25.2949 56.0345 23.4387 55.2886C21.5825 54.5427 19.9072 53.4087 18.5251 51.9625C15.7465 48.8479 14.2974 44.7695 14.4876 40.6C14.3908 38.3636 14.7436 36.1304 15.5251 34.0327C16.3066 31.935 17.501 30.0154 19.0376 28.3875C20.5384 26.8521 22.3429 25.6466 24.336 24.8481C26.3291 24.0496 28.4668 23.6756 30.6126 23.75C33.1471 23.6533 35.6744 24.0788 38.0376 25V28.9375C35.7455 27.6636 33.1596 27.0128 30.5376 27.05C28.905 26.9959 27.2797 27.2913 25.7707 27.9165C24.2616 28.5417 22.9035 29.4822 21.7876 30.675C19.4469 33.3432 18.2365 36.8176 18.4126 40.3625C18.2394 43.7127 19.3681 47.0002 21.5626 49.5375C22.6147 50.6688 23.8988 51.5593 25.327 52.1483C26.7553 52.7373 28.2939 53.0108 29.8376 52.95C32.7181 53.0216 35.5616 52.2902 38.0501 50.8375L38.0376 54.4375ZM65.9501 33.075L65.4501 35.4H59.7001L58.3251 42H64.5001L63.9126 44.325H57.8626L55.9251 53.075H53.1626L55.0501 44.325H49.5501L47.7001 53.075H45.0001L46.8501 44.325H41.0501L41.4876 42H47.3126L48.6501 35.4125H42.5626L43.0251 33.0875H49.1126L50.9626 24.25H53.7501L51.9001 33.0875H57.4376L59.3251 24.25H62.0251L60.1751 33.0875L65.9501 33.075ZM56.9876 35.4H51.4376L50.0001 42H55.5751L56.9876 35.4Z" fill="black"/>
</g>
<defs>
<clipPath id="clip0_206_2">
<rect width="80" height="80" fill="white"/>
</clipPath>
</defs>
</svg>
