<svg width="80" height="80" viewBox="0 0 80 80" fill="none" xmlns="http://www.w3.org/2000/svg">
<path d="M16.6667 18.3333C16.6667 15.2391 17.8959 12.2716 20.0838 10.0837C22.2718 7.89579 25.2392 6.66663 28.3334 6.66663H40.0001V30H28.3334C25.2392 30 22.2718 28.7708 20.0838 26.5829C17.8959 24.3949 16.6667 21.4275 16.6667 18.3333Z" stroke="#FBFF3A" stroke-width="2" stroke-linecap="round" stroke-linejoin="round"/>
<path d="M40 6.66663H51.6667C53.1988 6.66663 54.7158 6.96839 56.1313 7.5547C57.5468 8.141 58.8329 9.00036 59.9163 10.0837C60.9996 11.1671 61.859 12.4532 62.4453 13.8687C63.0316 15.2841 63.3333 16.8012 63.3333 18.3333C63.3333 19.8654 63.0316 21.3825 62.4453 22.7979C61.859 24.2134 60.9996 25.4995 59.9163 26.5829C58.8329 27.6662 57.5468 28.5256 56.1313 29.1119C54.7158 29.6982 53.1988 30 51.6667 30H40V6.66663Z" stroke="#FBFF3A" stroke-width="2" stroke-linecap="round" stroke-linejoin="round"/>
<path d="M40 41.6667C40 40.1346 40.3018 38.6175 40.8881 37.202C41.4744 35.7866 42.3337 34.5004 43.4171 33.4171C44.5004 32.3337 45.7866 31.4744 47.202 30.8881C48.6175 30.3018 50.1346 30 51.6667 30C53.1988 30 54.7158 30.3018 56.1313 30.8881C57.5468 31.4744 58.8329 32.3337 59.9163 33.4171C60.9996 34.5004 61.859 35.7866 62.4453 37.202C63.0316 38.6175 63.3333 40.1346 63.3333 41.6667C63.3333 43.1988 63.0316 44.7158 62.4453 46.1313C61.859 47.5468 60.9996 48.8329 59.9163 49.9162C58.8329 50.9996 57.5468 51.859 56.1313 52.4453C54.7158 53.0316 53.1988 53.3333 51.6667 53.3333C50.1346 53.3333 48.6175 53.0316 47.202 52.4453C45.7866 51.859 44.5004 50.9996 43.4171 49.9162C42.3337 48.8329 41.4744 47.5468 40.8881 46.1313C40.3018 44.7158 40 43.1988 40 41.6667V41.6667Z" stroke="#FBFF3A" stroke-width="2" stroke-linecap="round" stroke-linejoin="round"/>
<path d="M16.6667 65C16.6667 61.9058 17.8959 58.9384 20.0838 56.7505C22.2718 54.5625 25.2392 53.3334 28.3334 53.3334H40.0001V65C40.0001 68.0942 38.7709 71.0617 36.583 73.2496C34.3951 75.4375 31.4276 76.6667 28.3334 76.6667C25.2392 76.6667 22.2718 75.4375 20.0838 73.2496C17.8959 71.0617 16.6667 68.0942 16.6667 65Z" stroke="#FBFF3A" stroke-width="2" stroke-linecap="round" stroke-linejoin="round"/>
<path d="M16.6667 41.6667C16.6667 38.5725 17.8959 35.605 20.0838 33.4171C22.2718 31.2292 25.2392 30 28.3334 30H40.0001V53.3333H28.3334C25.2392 53.3333 22.2718 52.1042 20.0838 49.9162C17.8959 47.7283 16.6667 44.7609 16.6667 41.6667Z" stroke="#FBFF3A" stroke-width="2" stroke-linecap="round" stroke-linejoin="round"/>
</svg>
